<svg width="26" height="31" viewBox="0 0 26 31" fill="none" xmlns="http://www.w3.org/2000/svg">
<path fill-rule="evenodd" clip-rule="evenodd" d="M25.4 21.6V0.800049H4.80001L4.62357 0.80337C2.16483 0.896099 0.200012 2.91862 0.200012 5.40005V24.6C0.200012 26.0561 1.25631 27.2657 2.65394 27.5412C2.98436 27.6063 3.26001 27.327 3.26001 26.9903V26.5278C3.26001 26.4566 3.20349 26.3982 3.13229 26.3959C2.16181 26.3323 1.40001 25.5495 1.40001 24.6C1.40001 23.6093 2.22949 22.8001 3.26001 22.8001H24.2V26.4H12.52C12.1886 26.4 11.92 26.6687 11.92 27C11.92 27.3314 12.1886 27.6 12.52 27.6H25.4V27V26.4V22.8001V21.6ZM24.2 21.6V2.00005H20.4V21.6H24.2ZM19.2 21.6H3.26001L3.10283 21.6039C2.46448 21.6356 1.877 21.8593 1.40001 22.2177V5.40005L1.40393 5.23532C1.48986 3.43405 2.97747 2.00005 4.80001 2.00005H19.2V21.6ZM5.40001 23.8V28.3648L7.60001 27.109L9.80001 28.3657V23.8H11V30.434L7.60001 28.4912L4.20001 30.434V23.8H5.40001Z" fill="#6574CF"/>
</svg>
