<svg width="37" height="31" viewBox="0 0 37 31" fill="none" xmlns="http://www.w3.org/2000/svg">
<path fill-rule="evenodd" clip-rule="evenodd" d="M17.5 29.25C17.5 29.94 16.9412 30.5 16.25 30.5C15.5588 30.5 15 29.94 15 29.25C15 25.8037 12.1962 23 8.75 23C5.30375 23 2.5 25.8037 2.5 29.25C2.5 29.94 1.94125 30.5 1.25 30.5C0.55875 30.5 0 29.94 0 29.25C0 24.425 3.92625 20.5 8.75 20.5C13.5737 20.5 17.5 24.425 17.5 29.25ZM8.75 10.5C10.1287 10.5 11.25 11.6213 11.25 13C11.25 14.3787 10.1287 15.5 8.75 15.5C7.37125 15.5 6.25 14.3787 6.25 13C6.25 11.6213 7.37125 10.5 8.75 10.5ZM8.75 18C11.5075 18 13.75 15.7575 13.75 13C13.75 10.2425 11.5075 8 8.75 8C5.9925 8 3.75 10.2425 3.75 13C3.75 15.7575 5.9925 18 8.75 18Z" fill="#6574CF"/>
<path fill-rule="evenodd" clip-rule="evenodd" d="M36.5 29.25C36.5 29.94 35.9412 30.5 35.25 30.5C34.5588 30.5 34 29.94 34 29.25C34 25.8037 31.1963 23 27.75 23C24.3037 23 21.5 25.8037 21.5 29.25C21.5 29.94 20.9412 30.5 20.25 30.5C19.5588 30.5 19 29.94 19 29.25C19 24.425 22.9263 20.5 27.75 20.5C32.5737 20.5 36.5 24.425 36.5 29.25ZM27.75 10.5C29.1287 10.5 30.25 11.6213 30.25 13C30.25 14.3787 29.1287 15.5 27.75 15.5C26.3713 15.5 25.25 14.3787 25.25 13C25.25 11.6213 26.3713 10.5 27.75 10.5ZM27.75 18C30.5075 18 32.75 15.7575 32.75 13C32.75 10.2425 30.5075 8 27.75 8C24.9925 8 22.75 10.2425 22.75 13C22.75 15.7575 24.9925 18 27.75 18Z" fill="#6574CF"/>
<path fill-rule="evenodd" clip-rule="evenodd" d="M27.5 21.25C27.5 21.94 26.9412 22.5 26.25 22.5C25.5588 22.5 25 21.94 25 21.25C25 17.8037 22.1963 15 18.75 15C15.3038 15 12.5 17.8037 12.5 21.25C12.5 21.94 11.9412 22.5 11.25 22.5C10.5588 22.5 10 21.94 10 21.25C10 16.425 13.9263 12.5 18.75 12.5C23.5737 12.5 27.5 16.425 27.5 21.25ZM18.75 2.5C20.1287 2.5 21.25 3.62125 21.25 5C21.25 6.37875 20.1287 7.5 18.75 7.5C17.3713 7.5 16.25 6.37875 16.25 5C16.25 3.62125 17.3713 2.5 18.75 2.5ZM18.75 10C21.5075 10 23.75 7.7575 23.75 5C23.75 2.2425 21.5075 0 18.75 0C15.9925 0 13.75 2.2425 13.75 5C13.75 7.7575 15.9925 10 18.75 10Z" fill="#6574CF"/>
</svg>
