<svg width="21" height="21" viewBox="0 0 21 21" fill="none" xmlns="http://www.w3.org/2000/svg">
<g clip-path="url(#clip0_85_3147)">
<path d="M4.25122 10.5001C4.25122 13.9442 7.05397 16.7495 10.5015 16.7495C13.949 16.7495 16.7517 13.9471 16.7517 10.5001C16.7517 7.05309 13.949 4.25073 10.5015 4.25073C7.05397 4.25073 4.25122 7.05309 4.25122 10.5001ZM14.8557 10.1204C15.0648 12.5253 13.2866 14.6448 10.8813 14.8538C8.47595 15.0628 6.35623 13.2848 6.1472 10.8798C5.93817 8.47487 7.71638 6.35544 10.1217 6.14644C12.527 5.93744 14.6467 7.71541 14.8557 10.1204Z" fill="white"/>
<path d="M19.0716 13.9529L20.105 13.9117C20.3464 13.9029 20.5937 13.7056 20.6585 13.4731L20.9971 11.8364C21.0324 11.598 20.8822 11.3183 20.6673 11.2124L19.737 10.762C19.5191 10.656 19.3395 10.3734 19.3366 10.132C19.3366 10.132 19.3366 10.0114 19.3101 9.72876L19.3013 9.63163C19.2866 9.52565 19.4426 9.33432 19.6457 9.2048L20.5231 8.65139C20.7262 8.52187 20.844 8.2275 20.7821 7.99496L20.264 6.40833C20.1757 6.18461 19.9048 6.01682 19.6663 6.03448L18.63 6.10808C18.3886 6.12574 18.106 5.99327 17.9971 5.81665C17.8881 5.63709 17.6644 5.01598 17.7763 4.80404L18.2591 3.88856C18.371 3.67662 18.3238 3.36165 18.1531 3.19092L16.9078 2.07822C16.7193 1.92809 16.4014 1.91632 16.2012 2.05173L15.3445 2.63457C15.1443 2.76998 14.8322 2.79941 14.6497 2.69933C14.4671 2.59924 13.9607 2.16947 13.9519 1.93104L13.9107 0.897814C13.9019 0.656435 13.7046 0.409168 13.472 0.344408L11.841 0.00588811C11.6026 -0.0294357 11.3229 0.12069 11.2169 0.335577L10.7664 1.26577C10.6605 1.4836 10.3778 1.66316 10.1394 1.66611C10.1394 1.66611 10.0186 1.66611 9.73602 1.6926L9.63886 1.70143C9.53288 1.71321 9.34151 1.56014 9.21197 1.35408L8.65849 0.476872C8.52895 0.27376 8.23454 0.156014 8.00196 0.217831L6.41511 0.735913C6.19136 0.824223 6.02355 1.0921 6.04122 1.33347L6.11776 2.36964C6.13543 2.61102 6.00294 2.89361 5.8263 3.00252C5.64966 3.11144 5.02846 3.33516 4.81354 3.2233L3.89794 2.74054C3.68597 2.62868 3.37095 2.67578 3.2002 2.84357L2.08734 4.08873C1.93719 4.27712 1.92542 4.59504 2.06084 4.79521L2.64377 5.65181C2.7792 5.85198 2.80864 6.164 2.70854 6.34357C2.60844 6.52607 2.17861 7.02944 1.94014 7.04121L0.906772 7.08242C0.665359 7.09125 0.418058 7.28848 0.353288 7.52103L0.00588883 9.16064C-0.0294399 9.39908 0.120707 9.67872 0.335624 9.78469L1.26595 10.2351C1.48381 10.341 1.6634 10.6236 1.66634 10.8621C1.66634 10.8621 1.66634 10.9828 1.69284 11.2654L1.70167 11.3625C1.71345 11.4685 1.56035 11.6598 1.35427 11.7893L0.476939 12.3427C0.273799 12.4722 0.156036 12.7666 0.217861 12.9992L0.736016 14.5858C0.824338 14.8095 1.09519 14.9773 1.33366 14.9596L2.36997 14.8831C2.61138 14.8654 2.89401 14.9979 3.00294 15.1745C3.11187 15.3511 3.33562 15.9722 3.22375 16.1871L2.74092 17.1026C2.62905 17.3146 2.67615 17.6295 2.84691 17.8003L4.09225 18.913C4.28067 19.0631 4.59863 19.0749 4.79882 18.9394L5.65554 18.3566C5.85574 18.2212 6.16781 18.1918 6.3474 18.2918C6.52993 18.3919 7.03337 18.8217 7.04514 19.0601L7.08636 20.0934C7.09519 20.3347 7.29244 20.582 7.52502 20.6468L9.15898 20.9853C9.39745 21.0206 9.67713 20.8705 9.78312 20.6556L10.2365 19.7225C10.3425 19.5076 10.6251 19.3251 10.8665 19.3221C10.8665 19.3221 10.9872 19.3221 11.2699 19.2956L11.367 19.2868C11.473 19.2721 11.6644 19.4281 11.7939 19.6312L12.3474 20.5084C12.4769 20.7115 12.7713 20.8293 13.0039 20.7675L14.5908 20.2494C14.8145 20.1611 14.9823 19.8932 14.9647 19.6518L14.8911 18.6156C14.8734 18.3743 15.0059 18.0917 15.1825 17.9828C15.3592 17.8738 15.9804 17.6501 16.1953 17.762L17.1109 18.2447C17.3229 18.3566 17.6379 18.3095 17.8086 18.1388L18.9215 16.8936C19.0716 16.7052 19.0834 16.3873 18.948 16.1871L18.3651 15.3305C18.2296 15.1304 18.2002 14.8183 18.3003 14.6388C18.4004 14.4563 18.8302 13.95 19.0687 13.9411L19.0716 13.9529ZM10.5015 17.6207C6.57409 17.6207 3.37978 14.4268 3.37978 10.5C3.37978 6.57317 6.57409 3.37931 10.5015 3.37931C14.4289 3.37931 17.6232 6.57317 17.6232 10.5C17.6232 14.4268 14.4289 17.6207 10.5015 17.6207Z" fill="white"/>
</g>
<defs>
<clipPath id="clip0_85_3147">
<rect width="21" height="21" fill="white"/>
</clipPath>
</defs>
</svg>
